# xmcd
#
# Track frame offsets:
#	150
#	17942
#	31826
#	44862
#	61768
#	77815
#	89684
#	103822
#	123478
#	142804
#	159747
#	173833
#	190318
#	206067
#	226521
#	246484
#	262195
#	294223
#
# Disc length: 3938 seconds
#
# Revision: 1
# Processed by: cddbd v1.5.2PL0 Copyright (c) Steve Scherf et al.
# Submitted via: audiograbber 1.83.01
#
DISCID=050f6012
DTITLE=Various Artist - Country Hits of the 90's Disc 2
DYEAR=2004
DGENRE=Karaoke
TTITLE0=Carpenter, Mary Chapin - Shut Up And kiss Me
TTITLE1=Brooks and Dunn - Hard Workin' Man
TTITLE2=Hill, Faith - Wild One
TTITLE3=Strait, George - I Cross My Heart
TTITLE4=McBride, Martina - Independence Day
TTITLE5=Tritt, Travis - Here's A Quarter (Call Someone Who Cares)
TTITLE6=Rimes, LeAnn - Blue
TTITLE7=Tritt, Travis - Put Some Drive In Your Country
TTITLE8=Carter, Deana - Strawberry Wine
TTITLE9=Keith, Toby - Should've Been A Cowboy
TTITLE10=Tillis, Pam - Mi Vida Loca (My Crazy life)
TTITLE11=Brooks and Dunn - Rock My World (Little Country Girl)
TTITLE12=McEnitre, Reba - Why Haven't I Heard From You
TTITLE13=Montgomery, John Michael - I Swear
TTITLE14=Twain, Shania - Whose Bed Have Your Boots Been Under
TTITLE15=Strait, George - Check Yes Or No
TTITLE16=Yearwood, Trisha - How Do I Live
TTITLE17=Data Track - Data Track
EXTD=
EXTT0=
EXTT1=
EXTT2=
EXTT3=
EXTT4=
EXTT5=
EXTT6=
EXTT7=
EXTT8=
EXTT9=
EXTT10=
EXTT11=
EXTT12=
EXTT13=
EXTT14=
EXTT15=
EXTT16=
EXTT17=
PLAYORDER=
